<svg xmlns="http://www.w3.org/2000/svg"  viewBox="0 0 24 24" width="96px" height="96px"><path d="M 8.3164062 4.0039062 C 7.4484062 4.0039062 6.1811406 4.3226094 5.2441406 4.5996094 C 4.3771406 4.8556094 3.6552344 5.4479531 3.2402344 6.2519531 C 2.4062344 7.8649531 1.166625 11.064 1.015625 16 C 0.995625 16.67 1.2953594 17.314375 1.8183594 17.734375 C 2.8833594 18.589375 4.5907656 19.659375 7.0097656 19.984375 C 7.0847656 19.995375 7.1603281 20 7.2363281 20 C 7.7603281 20 8.2630781 19.758031 8.5800781 19.332031 L 9 18.65625 C 9 18.65625 10.653 19.019531 12 19.019531 L 12.013672 19.019531 C 13.360672 19.019531 15.013672 18.65625 15.013672 18.65625 L 15.433594 19.330078 C 15.751594 19.757078 16.253344 20 16.777344 20 C 16.853344 20 16.929859 19.994375 17.005859 19.984375 C 19.423859 19.659375 21.130313 18.589375 22.195312 17.734375 C 22.718312 17.314375 23.02 16.671953 23 16.001953 C 22.85 11.065953 21.607437 7.8659531 20.773438 6.2519531 C 20.358438 5.4489531 19.638484 4.8556094 18.771484 4.5996094 C 17.832484 4.3216094 16.565266 4.0039062 15.697266 4.0039062 C 15.443266 4.0039062 15.223641 4.0317031 15.056641 4.0957031 C 14.316641 4.3757031 14.001953 5.1445313 14.001953 5.1445312 C 14.001953 5.1445312 12.686625 4.9882813 12.015625 4.9882812 L 12 4.9882812 C 11.329 4.9882812 10.013672 5.1445312 10.013672 5.1445312 C 10.013672 5.1445312 9.6970313 4.37475 8.9570312 4.09375 C 8.7890312 4.03075 8.5704063 4.0039062 8.3164062 4.0039062 z M 8.3164062 5.0039062 C 8.5234063 5.0039062 8.6035156 5.0292969 8.6035156 5.0292969 C 8.8635156 5.1282969 9.0448906 5.4284375 9.0878906 5.5234375 C 9.2428906 5.9024375 9.6097187 6.1445312 10.011719 6.1445312 C 10.050719 6.1445312 10.090859 6.1417188 10.130859 6.1367188 C 10.480859 6.0957187 11.497672 5.9882812 12.013672 5.9882812 C 12.514672 5.9882812 13.534766 6.0957188 13.884766 6.1367188 C 13.921766 6.1407187 13.959094 6.1445312 13.996094 6.1445312 C 14.390094 6.1445312 14.758875 5.9011563 14.921875 5.5351562 C 14.969875 5.4281562 15.149203 5.12925 15.408203 5.03125 C 15.409203 5.03125 15.487312 5.0058594 15.695312 5.0058594 C 16.283313 5.0058594 17.275328 5.2025469 18.486328 5.5605469 C 19.097328 5.7415469 19.594766 6.1498906 19.884766 6.7128906 C 20.611766 8.1188906 21.850047 11.199203 21.998047 16.033203 C 22.009047 16.387203 21.848359 16.732031 21.568359 16.957031 C 20.172359 18.078031 18.591094 18.764094 16.871094 18.996094 C 16.840094 18.998094 16.809344 19 16.777344 19 C 16.572344 19 16.379859 18.910766 16.255859 18.759766 L 15.910156 18.203125 C 16.478907 17.982089 17.028009 17.734919 17.509766 17.441406 C 17.745766 17.297406 17.821734 16.990859 17.677734 16.755859 C 17.533734 16.518859 17.224234 16.442891 16.990234 16.587891 C 15.580234 17.446891 13.621906 18.003906 12.003906 18.003906 C 10.389906 18.003906 8.4325781 17.447891 7.0175781 16.587891 C 6.7815781 16.442891 6.4740781 16.517906 6.3300781 16.753906 C 6.1860781 16.989906 6.2620469 17.297406 6.4980469 17.441406 C 6.9821808 17.735921 7.5328167 17.983565 8.1035156 18.205078 L 7.7578125 18.759766 C 7.6328125 18.910766 7.4403281 19 7.2363281 19 C 7.2053281 19 7.1735781 18.998141 7.1425781 18.994141 C 5.4225781 18.763141 3.8423125 18.077078 2.4453125 16.955078 C 2.1653125 16.730078 2.004625 16.38525 2.015625 16.03125 C 2.162625 11.19725 3.4038594 8.1169375 4.1308594 6.7109375 C 4.4208594 6.1479375 4.9163437 5.7395938 5.5273438 5.5585938 C 6.7383438 5.2015937 7.7284063 5.0039062 8.3164062 5.0039062 z M 8.5 10 A 1.5 2 0 0 0 8.5 14 A 1.5 2 0 0 0 8.5 10 z M 15.5 10 A 1.5 2 0 0 0 15.5 14 A 1.5 2 0 0 0 15.5 10 z"/></svg>